<mxfile host="app.diagrams.net" modified="2024-07-12T09:53:34.496Z" agent="Mozilla/5.0 (Macintosh; Intel Mac OS X 10_15_7) AppleWebKit/537.36 (KHTML, like Gecko) Chrome/126.0.0.0 Safari/537.36" etag="ecAPFhnQNgWvdWK0BKja" version="24.6.5" type="device">
  <diagram name="Page-1" id="C7EKkYM80mB1PNB-e7aC">
    <mxGraphModel dx="2501" dy="1999" grid="1" gridSize="10" guides="1" tooltips="1" connect="1" arrows="1" fold="1" page="1" pageScale="1" pageWidth="827" pageHeight="1169" math="0" shadow="0">
      <root>
        <mxCell id="0" />
        <mxCell id="1" parent="0" />
        <mxCell id="GUCerZjOvm7Owrwp1h2M-1" value="Container" style="swimlane;" parent="1" vertex="1">
          <mxGeometry y="-20" width="800" height="1820" as="geometry" />
        </mxCell>
        <mxCell id="GUCerZjOvm7Owrwp1h2M-2" value="" style="rounded=0;whiteSpace=wrap;html=1;" parent="GUCerZjOvm7Owrwp1h2M-1" vertex="1">
          <mxGeometry x="760" y="20" width="40" height="560" as="geometry" />
        </mxCell>
        <mxCell id="GUCerZjOvm7Owrwp1h2M-7" value="" style="whiteSpace=wrap;html=1;aspect=fixed;" parent="GUCerZjOvm7Owrwp1h2M-1" vertex="1">
          <mxGeometry x="765" y="50" width="30" height="30" as="geometry" />
        </mxCell>
        <mxCell id="GUCerZjOvm7Owrwp1h2M-8" value="" style="whiteSpace=wrap;html=1;aspect=fixed;" parent="GUCerZjOvm7Owrwp1h2M-1" vertex="1">
          <mxGeometry x="765" y="260" width="30" height="30" as="geometry" />
        </mxCell>
        <mxCell id="GUCerZjOvm7Owrwp1h2M-9" value="" style="whiteSpace=wrap;html=1;aspect=fixed;" parent="GUCerZjOvm7Owrwp1h2M-1" vertex="1">
          <mxGeometry x="765" y="520" width="30" height="30" as="geometry" />
        </mxCell>
        <mxCell id="GUCerZjOvm7Owrwp1h2M-11" value="&lt;font style=&quot;font-size: 48px;&quot;&gt;Hi,&lt;/font&gt;&lt;div&gt;&lt;font size=&quot;3&quot;&gt;I&#39;m Henry&lt;/font&gt;&lt;/div&gt;" style="text;html=1;align=left;verticalAlign=middle;whiteSpace=wrap;rounded=0;" parent="GUCerZjOvm7Owrwp1h2M-1" vertex="1">
          <mxGeometry x="230" y="150" width="280" height="90" as="geometry" />
        </mxCell>
        <mxCell id="GUCerZjOvm7Owrwp1h2M-12" value="&lt;span style=&quot;font-family: ui-sans-serif, system-ui, sans-serif, &amp;quot;Apple Color Emoji&amp;quot;, &amp;quot;Segoe UI Emoji&amp;quot;, &amp;quot;Segoe UI Symbol&amp;quot;, &amp;quot;Noto Color Emoji&amp;quot;; white-space-collapse: break-spaces;&quot;&gt;&lt;font style=&quot;font-size: 10px;&quot;&gt;&lt;br/&gt;I don&#39;t predict it. Nobody does, &#39;cause i-it&#39;s just wind. It&#39;s wind. It blows all over the place! They somehow managed to get every creep and freak in the universe onto this one plane. I just stole fifty cars in one night! I&#39;m a little tired, little *wired*, and I think I deserve a little appreciation!&lt;/font&gt;&lt;/span&gt;" style="text;html=1;align=left;verticalAlign=middle;whiteSpace=wrap;rounded=0;" parent="GUCerZjOvm7Owrwp1h2M-1" vertex="1">
          <mxGeometry x="230" y="220" width="370" height="80" as="geometry" />
        </mxCell>
        <mxCell id="GUCerZjOvm7Owrwp1h2M-13" value="Get in touch!" style="rounded=1;whiteSpace=wrap;html=1;" parent="GUCerZjOvm7Owrwp1h2M-1" vertex="1">
          <mxGeometry x="230" y="310" width="100" height="30" as="geometry" />
        </mxCell>
        <mxCell id="UNdLqfeP5muEoXmxbYU_-1" value="" style="rounded=0;whiteSpace=wrap;html=1;" vertex="1" parent="GUCerZjOvm7Owrwp1h2M-1">
          <mxGeometry y="600" width="800" height="610" as="geometry" />
        </mxCell>
        <mxCell id="UNdLqfeP5muEoXmxbYU_-3" value="&lt;h1 style=&quot;margin-top: 0px;&quot;&gt;About page&lt;/h1&gt;&lt;p&gt;Lorem ipsum dolor sit amet, consectetur adipisicing elit, sed do eiusmod tempor incididunt ut labore et dolore magna aliqua.&lt;/p&gt;" style="text;html=1;whiteSpace=wrap;overflow=hidden;rounded=0;" vertex="1" parent="GUCerZjOvm7Owrwp1h2M-1">
          <mxGeometry x="20" y="605" width="780" height="465" as="geometry" />
        </mxCell>
        <mxCell id="UNdLqfeP5muEoXmxbYU_-4" value="&lt;h1 style=&quot;margin-top: 0px;&quot;&gt;Hard skills&lt;/h1&gt;&lt;p&gt;Lorem ipsum dolor sit amet, consectetur adipisicing elit, sed do eiusmod tempor incididunt ut labore et dolore magna aliqua.&lt;/p&gt;" style="text;html=1;whiteSpace=wrap;overflow=hidden;rounded=0;" vertex="1" parent="GUCerZjOvm7Owrwp1h2M-1">
          <mxGeometry x="40" y="730" width="180" height="120" as="geometry" />
        </mxCell>
        <mxCell id="UNdLqfeP5muEoXmxbYU_-5" value="&lt;h1 style=&quot;margin-top: 0px;&quot;&gt;Soft skills&lt;/h1&gt;&lt;p&gt;Lorem ipsum dolor sit amet, consectetur adipisicing elit, sed do eiusmod tempor incididunt ut labore et dolore magna aliqua.&lt;/p&gt;" style="text;html=1;whiteSpace=wrap;overflow=hidden;rounded=0;" vertex="1" parent="GUCerZjOvm7Owrwp1h2M-1">
          <mxGeometry x="570" y="910" width="180" height="120" as="geometry" />
        </mxCell>
        <mxCell id="UNdLqfeP5muEoXmxbYU_-6" value="&lt;h1 style=&quot;margin-top: 0px;&quot;&gt;More about me&lt;/h1&gt;&lt;p&gt;Lorem ipsum dolor sit amet, consectetur adipisicing elit, sed do eiusmod tempor incididunt ut labore et dolore magna aliqua.&lt;/p&gt;" style="text;html=1;whiteSpace=wrap;overflow=hidden;rounded=0;" vertex="1" parent="GUCerZjOvm7Owrwp1h2M-1">
          <mxGeometry x="40" y="1060" width="180" height="120" as="geometry" />
        </mxCell>
        <mxCell id="UNdLqfeP5muEoXmxbYU_-20" value="" style="rounded=0;whiteSpace=wrap;html=1;" vertex="1" parent="GUCerZjOvm7Owrwp1h2M-1">
          <mxGeometry y="1210" width="800" height="610" as="geometry" />
        </mxCell>
        <mxCell id="UNdLqfeP5muEoXmxbYU_-21" value="Projects" style="text;html=1;align=center;verticalAlign=middle;whiteSpace=wrap;rounded=0;" vertex="1" parent="GUCerZjOvm7Owrwp1h2M-1">
          <mxGeometry x="40" y="1240" width="60" height="30" as="geometry" />
        </mxCell>
        <mxCell id="UNdLqfeP5muEoXmxbYU_-22" value="" style="whiteSpace=wrap;html=1;aspect=fixed;" vertex="1" parent="GUCerZjOvm7Owrwp1h2M-1">
          <mxGeometry x="50" y="1290" width="100" height="100" as="geometry" />
        </mxCell>
        <mxCell id="UNdLqfeP5muEoXmxbYU_-55" value="" style="whiteSpace=wrap;html=1;aspect=fixed;" vertex="1" parent="GUCerZjOvm7Owrwp1h2M-1">
          <mxGeometry x="50" y="1430" width="100" height="100" as="geometry" />
        </mxCell>
        <mxCell id="UNdLqfeP5muEoXmxbYU_-56" value="" style="whiteSpace=wrap;html=1;aspect=fixed;" vertex="1" parent="GUCerZjOvm7Owrwp1h2M-1">
          <mxGeometry x="50" y="1560" width="100" height="100" as="geometry" />
        </mxCell>
        <mxCell id="UNdLqfeP5muEoXmxbYU_-57" value="" style="whiteSpace=wrap;html=1;aspect=fixed;" vertex="1" parent="GUCerZjOvm7Owrwp1h2M-1">
          <mxGeometry x="50" y="1700" width="100" height="100" as="geometry" />
        </mxCell>
        <mxCell id="UNdLqfeP5muEoXmxbYU_-59" value="&lt;h1 style=&quot;margin-top: 0px;&quot;&gt;Heading&lt;/h1&gt;&lt;p&gt;Lorem ipsum dolor sit amet, consectetur adipisicing elit, sed do eiusmod tempor incididunt ut labore et dolore magna aliqua.&lt;/p&gt;" style="text;html=1;whiteSpace=wrap;overflow=hidden;rounded=0;" vertex="1" parent="GUCerZjOvm7Owrwp1h2M-1">
          <mxGeometry x="340" y="1280" width="180" height="120" as="geometry" />
        </mxCell>
        <mxCell id="UNdLqfeP5muEoXmxbYU_-60" value="&lt;h1 style=&quot;margin-top: 0px;&quot;&gt;Heading&lt;/h1&gt;&lt;p&gt;Lorem ipsum dolor sit amet, consectetur adipisicing elit, sed do eiusmod tempor incididunt ut labore et dolore magna aliqua.&lt;/p&gt;" style="text;html=1;whiteSpace=wrap;overflow=hidden;rounded=0;" vertex="1" parent="GUCerZjOvm7Owrwp1h2M-1">
          <mxGeometry x="340" y="1420" width="180" height="120" as="geometry" />
        </mxCell>
        <mxCell id="UNdLqfeP5muEoXmxbYU_-61" value="&lt;h1 style=&quot;margin-top: 0px;&quot;&gt;Heading&lt;/h1&gt;&lt;p&gt;Lorem ipsum dolor sit amet, consectetur adipisicing elit, sed do eiusmod tempor incididunt ut labore et dolore magna aliqua.&lt;/p&gt;" style="text;html=1;whiteSpace=wrap;overflow=hidden;rounded=0;" vertex="1" parent="GUCerZjOvm7Owrwp1h2M-1">
          <mxGeometry x="340" y="1550" width="180" height="120" as="geometry" />
        </mxCell>
        <mxCell id="UNdLqfeP5muEoXmxbYU_-62" value="&lt;h1 style=&quot;margin-top: 0px;&quot;&gt;Heading&lt;/h1&gt;&lt;p&gt;Lorem ipsum dolor sit amet, consectetur adipisicing elit, sed do eiusmod tempor incididunt ut labore et dolore magna aliqua.&lt;/p&gt;" style="text;html=1;whiteSpace=wrap;overflow=hidden;rounded=0;" vertex="1" parent="GUCerZjOvm7Owrwp1h2M-1">
          <mxGeometry x="330" y="1690" width="180" height="120" as="geometry" />
        </mxCell>
        <mxCell id="GUCerZjOvm7Owrwp1h2M-5" style="edgeStyle=orthogonalEdgeStyle;rounded=0;orthogonalLoop=1;jettySize=auto;html=1;exitX=1;exitY=0.5;exitDx=0;exitDy=0;" parent="1" source="GUCerZjOvm7Owrwp1h2M-3" edge="1">
          <mxGeometry relative="1" as="geometry">
            <mxPoint x="-20" y="10" as="targetPoint" />
          </mxGeometry>
        </mxCell>
        <mxCell id="GUCerZjOvm7Owrwp1h2M-6" style="edgeStyle=orthogonalEdgeStyle;rounded=0;orthogonalLoop=1;jettySize=auto;html=1;exitX=0;exitY=0.5;exitDx=0;exitDy=0;" parent="1" source="GUCerZjOvm7Owrwp1h2M-3" edge="1">
          <mxGeometry relative="1" as="geometry">
            <mxPoint x="-20" y="550" as="targetPoint" />
          </mxGeometry>
        </mxCell>
        <mxCell id="GUCerZjOvm7Owrwp1h2M-3" value="100vh" style="text;html=1;align=center;verticalAlign=middle;whiteSpace=wrap;rounded=0;rotation=-90;" parent="1" vertex="1">
          <mxGeometry x="-50" y="280" width="60" height="30" as="geometry" />
        </mxCell>
        <mxCell id="UNdLqfeP5muEoXmxbYU_-63" value="" style="rounded=0;whiteSpace=wrap;html=1;" vertex="1" parent="1">
          <mxGeometry y="1800" width="800" height="610" as="geometry" />
        </mxCell>
        <mxCell id="UNdLqfeP5muEoXmxbYU_-64" value="Contact" style="shape=process;whiteSpace=wrap;html=1;backgroundOutline=1;" vertex="1" parent="1">
          <mxGeometry x="220" y="2040" width="360" height="60" as="geometry" />
        </mxCell>
      </root>
    </mxGraphModel>
  </diagram>
</mxfile>
